<?xml version="1.0" encoding="UTF-8" standalone="no"?>
<svg
   xmlns:dc="http://purl.org/dc/elements/1.1/"
   xmlns:cc="http://creativecommons.org/ns#"
   xmlns:rdf="http://www.w3.org/1999/02/22-rdf-syntax-ns#"
   xmlns:svg="http://www.w3.org/2000/svg"
   xmlns="http://www.w3.org/2000/svg"
   version="1.1"
   id="svg2"
   viewBox="0 0 1792 1792"
   height="1792"
   width="1792">
  <metadata
     id="metadata10">
    <rdf:RDF>
      <cc:Work
         rdf:about="">
        <dc:format>image/svg+xml</dc:format>
        <dc:type
           rdf:resource="http://purl.org/dc/dcmitype/StillImage" />
        <dc:title></dc:title>
      </cc:Work>
    </rdf:RDF>
  </metadata>
  <defs
     id="defs8" />
  <path
     id="path4"
     d="m 192,128 128,1438 574,162 578,-162 128,-1438 z m 298.5332,465.05273 c 37.87924,0 60.33638,10.01133 67.3711,30.03321 2.70566,9.19924 4.05859,23.26936 4.05859,42.20898 l 0,165.58594 215.09961,0 0,-166.39844 c 0,-12.44603 0.27137,-21.6452 0.8125,-27.59765 1.08226,-6.49359 3.78813,-13.79904 8.11719,-21.91602 4.32905,-8.11698 11.63451,-13.79813 21.91601,-17.04492 10.28151,-3.24679 23.26812,-4.8711 38.96094,-4.8711 15.69283,0 28.13865,1.35294 37.33789,4.0586 9.19924,2.70566 16.23333,5.95231 21.10352,9.74023 4.87018,3.78793 8.65957,9.19966 11.36523,16.23438 2.70566,9.19924 4.0586,23.26936 4.0586,42.20898 l 0,450.49218 c 0,12.446 -0.54274,21.9166 -1.625,28.4102 -0.54114,5.9524 -2.97564,12.9865 -7.30469,21.1035 -7.57585,14.6105 -28.68006,21.916 -63.3125,21.916 -37.87924,0 -60.06501,-10.0113 -66.5586,-30.0332 -3.24679,-9.1992 -5.10096,-23.2708 -4.87109,-42.209 l 0,-164.77343 -215.09961,0 0,165.58593 c 0,12.446 -0.54078,21.9166 -1.62305,28.4102 -0.54113,5.9524 -2.97563,12.9865 -7.30468,21.1035 -7.57585,14.6105 -28.68006,21.916 -63.3125,21.916 -37.87924,0 -60.06697,-10.0113 -66.56055,-30.0332 -3.24679,-9.1992 -4.86914,-23.2694 -4.86914,-42.209 l 0,-450.49218 c 0,-12.44603 0.26941,-21.6452 0.81055,-27.59765 1.08226,-6.49359 3.78813,-13.79904 8.11718,-21.91602 7.57585,-14.61056 28.68006,-21.91602 63.3125,-21.91602 z m 569.1777,0 319.8086,0 c 12.4461,0 21.6452,0.54274 27.5977,1.625 6.4936,0.54114 13.5296,2.97564 21.1055,7.30469 8.1169,4.32906 13.7981,11.63451 17.0449,21.91602 3.2468,10.2815 4.8711,24.08026 4.8711,41.39648 0,17.31622 -1.6243,31.11498 -4.8711,41.39649 -3.2468,10.2815 -8.928,17.58696 -17.0449,21.91601 -8.117,3.78793 -15.4225,6.22243 -21.9161,7.30469 -5.9524,0.54113 -15.4229,0.8125 -28.4101,0.8125 l -248.3789,0 0,81.98047 159.9043,0 c 12.9871,0 22.4577,0.54078 28.4101,1.62304 6.4936,0.54114 13.7991,2.97759 21.916,7.30665 14.0695,8.11697 21.1036,29.4906 21.1036,64.12304 0,37.87924 -10.2827,60.33638 -30.8457,67.3711 -8.6582,2.70566 -22.4569,4.05859 -41.3965,4.05859 l -159.0918,0 0,153.4121 c 0,12.9872 -0.5408,22.4558 -1.6231,28.4082 -0.5411,5.9525 -2.9776,12.9885 -7.3066,21.1055 -7.5759,14.6105 -28.6801,21.914 -63.3125,21.914 -37.8792,0 -60.065,-10.2807 -66.5586,-30.8437 -3.24679,-8.6581 -4.86914,-22.4569 -4.86914,-41.3965 l 0,-451.30468 c 0,-27.59773 5.14034,-46.26548 15.42184,-56.00586 10.2815,-10.2815 29.7614,-15.42383 58.4414,-15.42383 z"
     style="fill:#ffffff" />
  <flowRoot
     style="fill:black;stroke:none;stroke-opacity:1;stroke-width:1px;stroke-linejoin:miter;stroke-linecap:butt;fill-opacity:1;font-family:sans-serif;font-style:normal;font-weight:normal;font-size:25px;line-height:125%;letter-spacing:0px;word-spacing:0px;text-anchor:start;text-align:start"
     id="flowRoot4142"
     xml:space="preserve"><flowRegion
       id="flowRegion4144"><rect
         y="-27472.271"
         x="-5307.6611"
         height="25209.492"
         width="850.44067"
         id="rect4146" /></flowRegion><flowPara
       id="flowPara4148" /></flowRoot></svg>
